# xmcd CD database file
#
# Track frame offsets:
#	150
#	11607
#	26040
#	41839
#	59060
#	69787
#	83710
#	98987
#	116332
#	133070
#	145975
#	157105
#	168877
#	181625
#	196405
#
# Disc length: 2801 seconds
#
# Revision: 2
# Processed by: cddbd v1.4b41PL1 Copyright (c) Steve Scherf et al.
# Submitted via: Feurio! 1.50.2ß - http://www.feurio.com
#
DISCID=ca0aef0f
DTITLE=CD-COPY - 15.02.2001 21.20.09
DYEAR=1900
DGENRE=
TTITLE0=??? - CD-COPY
TTITLE1=??? - CD-COPY
TTITLE2=??? - CD-COPY
TTITLE3=??? - CD-COPY
TTITLE4=??? - CD-COPY
TTITLE5=??? - CD-COPY
TTITLE6=??? - CD-COPY
TTITLE7=??? - CD-COPY
TTITLE8=??? - CD-COPY
TTITLE9=??? - CD-COPY
TTITLE10=??? - CD-COPY
TTITLE11=??? - CD-COPY
TTITLE12=??? - CD-COPY
TTITLE13=??? - CD-COPY
TTITLE14=??? - CD-COPY
EXTD=
EXTT0=
EXTT1=
EXTT2=
EXTT3=
EXTT4=
EXTT5=
EXTT6=
EXTT7=
EXTT8=
EXTT9=
EXTT10=
EXTT11=
EXTT12=
EXTT13=
EXTT14=
PLAYORDER=
